<?xml version="1.0" encoding="UTF-8" standalone="no" ?>
<!DOCTYPE svg PUBLIC "-//W3C//DTD SVG 1.1//EN" "http://www.w3.org/Graphics/SVG/1.1/DTD/svg11.dtd">
<svg xmlns="http://www.w3.org/2000/svg" xmlns:xlink="http://www.w3.org/1999/xlink" version="1.1" width="137.99" height="137.99" xml:space="preserve">
<desc>Created with Fabric.js 1.6.0-rc.1</desc>
<defs></defs>
<g style="stroke: none; stroke-width: 1; stroke-dasharray: none; stroke-linecap: butt; stroke-linejoin: miter; stroke-miterlimit: 10; fill: none; fill-rule: nonzero; opacity: 1;" transform="translate(10 10) scale(0.23 0.23)" >
  <circle cx="255.99599999999998" cy="255.99599999999998" r="247.706" style="stroke: none; stroke-width: 1; stroke-dasharray: none; stroke-linecap: butt; stroke-linejoin: miter; stroke-miterlimit: 10; fill: #6487FF; fill-rule: nonzero; opacity: 1;" transform="  matrix(1 0 0 1 0 0) "/>
  <path d="M 353.313 432.933 c -122.147 0 -221.166 -99.019 -221.166 -221.166 c 0 -91.123 55.121 -169.349 133.828 -203.221 c -3.313 -0.132 -6.629 -0.252 -9.975 -0.252 C 119.195 8.294 8.294 119.195 8.294 256 c 0 136.804 110.902 247.706 247.706 247.706 c 78.023 0 147.58 -36.108 192.984 -92.485 C 420.031 425.134 387.583 432.933 353.313 432.933 z" style="stroke: none; stroke-width: 1; stroke-dasharray: none; stroke-linecap: butt; stroke-linejoin: miter; stroke-miterlimit: 10; fill: #4B6EDC; fill-rule: nonzero; opacity: 1;" transform=" matrix(1 0 0 1 0 0) " stroke-linecap="round" />
  <ellipse cx="211.76999999999998" cy="371.007" rx="53.08" ry="35.387" style="stroke: none; stroke-width: 1; stroke-dasharray: none; stroke-linecap: butt; stroke-linejoin: miter; stroke-miterlimit: 10; fill: #4B6EDC; fill-rule: nonzero; opacity: 1;" transform=" matrix(1 0 0 1 0 0) "/>
  <path d="M 16.099 194.073 h 479.804 c -12.537 -48.711 -39.559 -91.577 -76.146 -123.853 H 92.245 C 55.658 102.496 28.636 145.363 16.099 194.073 z" style="stroke: none; stroke-width: 1; stroke-dasharray: none; stroke-linecap: butt; stroke-linejoin: miter; stroke-miterlimit: 10; fill: #4B6EDC; fill-rule: nonzero; opacity: 1;" transform=" matrix(1 0 0 1 0 0) " stroke-linecap="round" />
  <path d="M 132.872 194.073 c 3.721 -46.977 22.204 -89.732 50.7 -123.853 H 92.245 c -36.588 32.276 -63.609 75.142 -76.146 123.853 H 132.872 z" style="stroke: none; stroke-width: 1; stroke-dasharray: none; stroke-linecap: butt; stroke-linejoin: miter; stroke-miterlimit: 10; fill: #3C55C3; fill-rule: nonzero; opacity: 1;" transform=" matrix(1 0 0 1 0 0) " stroke-linecap="round" />
  <path d="M 176.495 344.615 c -10.902 6.48 -17.808 15.888 -17.808 26.392 c 0 19.543 23.764 35.387 53.08 35.387 c 10.061 0 19.434 -1.9 27.45 -5.141 C 214.845 386.544 193.544 367.272 176.495 344.615 z" style="stroke: none; stroke-width: 1; stroke-dasharray: none; stroke-linecap: butt; stroke-linejoin: miter; stroke-miterlimit: 10; fill: #3C55C3; fill-rule: nonzero; opacity: 1;" transform=" matrix(1 0 0 1 0 0) " stroke-linecap="round" />
  <path d="M 437.019 74.981 C 388.668 26.628 324.38 0 256 0 S 123.332 26.628 74.981 74.981 C 26.628 123.332 0 187.62 0 256 s 26.628 132.668 74.981 181.019 S 187.62 512 256 512 s 132.668 -26.628 181.019 -74.981 S 512 324.38 512 256 S 485.372 123.332 437.019 74.981 z M 425.291 425.291 c -45.22 45.219 -105.341 70.122 -169.291 70.122 s -124.071 -24.903 -169.291 -70.122 C 41.491 380.071 16.587 319.949 16.587 256 S 41.491 131.929 86.709 86.709 C 131.929 41.491 192.051 16.587 256 16.587 s 124.071 24.903 169.291 70.122 c 45.219 45.22 70.122 105.342 70.122 169.291 S 470.509 380.071 425.291 425.291 z" style="stroke: none; stroke-width: 1; stroke-dasharray: none; stroke-linecap: butt; stroke-linejoin: miter; stroke-miterlimit: 10; fill: rgb(0,0,0); fill-rule: nonzero; opacity: 1;" transform=" matrix(1 0 0 1 0 0) " stroke-linecap="round" />
  <path d="M 317.927 362.713 h -45.861 c -5.302 -20.394 -29.881 -35.387 -60.299 -35.387 c -34.416 0 -61.374 19.187 -61.374 43.68 s 26.958 43.68 61.374 43.68 c 30.418 0 54.996 -14.993 60.299 -35.387 h 45.861 c 4.58 0 8.294 -3.713 8.294 -8.294 S 322.507 362.713 317.927 362.713 z M 211.767 398.099 c -24.276 0 -44.786 -12.407 -44.786 -27.093 s 20.51 -27.093 44.786 -27.093 s 44.786 12.407 44.786 27.093 S 236.043 398.099 211.767 398.099 z" style="stroke: none; stroke-width: 1; stroke-dasharray: none; stroke-linecap: butt; stroke-linejoin: miter; stroke-miterlimit: 10; fill: rgb(0,0,0); fill-rule: nonzero; opacity: 1;" transform=" matrix(1 0 0 1 0 0) " stroke-linecap="round" />
  <path d="M 166.981 247.153 c 0 -4.58 -3.713 -8.294 -8.294 -8.294 H 70.22 c -4.58 0 -8.294 3.713 -8.294 8.294 s 3.713 8.294 8.294 8.294 h 88.467 C 163.267 255.447 166.981 251.734 166.981 247.153 z" style="stroke: none; stroke-width: 1; stroke-dasharray: none; stroke-linecap: butt; stroke-linejoin: miter; stroke-miterlimit: 10; fill: rgb(0,0,0); fill-rule: nonzero; opacity: 1;" transform=" matrix(1 0 0 1 0 0) " stroke-linecap="round" />
  <path d="M 388.7 115.006 h -35.387 c -4.58 0 -8.294 3.713 -8.294 8.294 c 0 4.58 3.713 8.294 8.294 8.294 H 388.7 c 4.58 0 8.294 -3.713 8.294 -8.294 C 396.993 118.72 393.28 115.006 388.7 115.006 z" style="stroke: none; stroke-width: 1; stroke-dasharray: none; stroke-linecap: butt; stroke-linejoin: miter; stroke-miterlimit: 10; fill: rgb(0,0,0); fill-rule: nonzero; opacity: 1;" transform=" matrix(1 0 0 1 0 0) " stroke-linecap="round" />
  <path d="M 247.153 255.447 h 17.693 c 4.58 0 8.294 -3.713 8.294 -8.294 s -3.713 -8.294 -8.294 -8.294 h -17.693 c -4.58 0 -8.294 3.713 -8.294 8.294 S 242.573 255.447 247.153 255.447 z" style="stroke: none; stroke-width: 1; stroke-dasharray: none; stroke-linecap: butt; stroke-linejoin: miter; stroke-miterlimit: 10; fill: rgb(0,0,0); fill-rule: nonzero; opacity: 1;" transform=" matrix(1 0 0 1 0 0) " stroke-linecap="round" />
  <path d="M 371.006 362.713 h -17.693 c -4.58 0 -8.294 3.713 -8.294 8.294 s 3.713 8.294 8.294 8.294 h 17.693 c 4.58 0 8.294 -3.713 8.294 -8.294 S 375.587 362.713 371.006 362.713 z" style="stroke: none; stroke-width: 1; stroke-dasharray: none; stroke-linecap: butt; stroke-linejoin: miter; stroke-miterlimit: 10; fill: rgb(0,0,0); fill-rule: nonzero; opacity: 1;" transform=" matrix(1 0 0 1 0 0) " stroke-linecap="round" />
  <path d="M 123.3 362.713 h -17.693 c -4.58 0 -8.294 3.713 -8.294 8.294 s 3.713 8.294 8.294 8.294 H 123.3 c 4.58 0 8.294 -3.713 8.294 -8.294 S 127.881 362.713 123.3 362.713 z" style="stroke: none; stroke-width: 1; stroke-dasharray: none; stroke-linecap: butt; stroke-linejoin: miter; stroke-miterlimit: 10; fill: rgb(0,0,0); fill-rule: nonzero; opacity: 1;" transform=" matrix(1 0 0 1 0 0) " stroke-linecap="round" />
</g>
</svg>